<svg width="27" height="21" viewBox="0 0 27 21" fill="none" xmlns="http://www.w3.org/2000/svg">
<g clip-path="url(#clip0_759_1451)">
<path d="M4.72326 15.7647C4.88016 15.6107 5.0959 15.5209 5.32472 15.5209H26.075C26.4542 15.5209 26.6438 15.97 26.3758 16.2331L22.2767 20.2562C22.1198 20.4102 21.904 20.5 21.6752 20.5H0.924919C0.545738 20.5 0.356148 20.0508 0.624189 19.7878L4.72326 15.7647Z" fill="white"/>
<path d="M4.72326 0.743824C4.8867 0.58983 5.10244 0.5 5.32472 0.5H26.075C26.4542 0.5 26.6438 0.94915 26.3758 1.21222L22.2767 5.23532C22.1198 5.38932 21.904 5.47915 21.6752 5.47915H0.924919C0.545738 5.47915 0.356148 5.03 0.624189 4.76692L4.72326 0.743824Z" fill="white"/>
<path d="M22.2767 8.20613C22.1198 8.05213 21.904 7.9623 21.6752 7.9623H0.924919C0.545738 7.9623 0.356148 8.41145 0.624189 8.67453L4.72326 12.6976C4.88016 12.8516 5.0959 12.9414 5.32472 12.9414H26.075C26.4542 12.9414 26.6438 12.4923 26.3758 12.2292L22.2767 8.20613Z" fill="white"/>
</g>
<defs>
<clipPath id="clip0_759_1451">
<rect width="26" height="20" fill="white" transform="translate(0.5 0.5)"/>
</clipPath>
</defs>
</svg>
