<svg width="24" height="25" viewBox="0 0 24 25" fill="none" xmlns="http://www.w3.org/2000/svg">
<path fill-rule="evenodd" clip-rule="evenodd" d="M11.9999 22.5C17.5436 22.5 22 18.0436 22 12.4999C22 6.95623 17.5436 2.5 11.9999 2.5C6.45623 2.5 2 6.95623 2 12.4999C2 18.0436 6.45623 22.5 11.9999 22.5ZM14.7503 14.0806C14.7503 12.6245 13.8753 12.1244 12.1253 11.9182C10.8754 11.7495 10.6255 11.4182 10.6255 10.8307C10.6255 10.2495 11.0441 9.87452 11.8754 9.87452C12.6254 9.87452 13.0441 10.1245 13.2504 10.7495C13.2942 10.8745 13.4192 10.9557 13.5442 10.9557H14.2067C14.3754 10.9557 14.5004 10.8307 14.5004 10.6681V10.6244C14.3317 9.70564 13.5816 8.83072 12.6254 8.74946V7.83072C12.6254 7.66197 12.5004 7.53696 12.2942 7.49947H11.7441C11.5754 7.49947 11.4192 7.62446 11.3755 7.83072V8.74946C10.1254 8.91822 9.29415 9.87452 9.29415 10.9182C9.29415 12.2932 10.1254 12.8307 11.8754 13.0432C13.0441 13.2494 13.4192 13.4995 13.4192 14.1681C13.4192 14.8306 12.8316 15.2932 12.0441 15.2932C10.9566 15.2932 10.5817 14.8306 10.4567 14.2058C10.4191 14.0432 10.2941 13.9557 10.1691 13.9557H9.45661C9.29415 13.9557 9.16917 14.0806 9.16917 14.2495V14.2933C9.33163 15.3307 10.0004 16.0432 11.3755 16.2495V17.1745C11.3755 17.3432 11.5005 17.4556 11.7067 17.4994H12.3066C12.4692 17.4994 12.5817 17.387 12.6254 17.1745V16.2495C13.8753 16.0432 14.7503 15.2057 14.7503 14.0806ZM7.79213 17.194C8.39642 17.748 9.10442 18.1768 9.87529 18.4555C10.0004 18.543 10.1254 18.7056 10.1254 18.8306V19.418C10.1254 19.4993 10.1254 19.5431 10.0816 19.5806C10.0442 19.7493 9.87529 19.8305 9.70657 19.7493C8.18992 19.2666 6.86609 18.314 5.92665 17.0292C4.98721 15.7444 4.48086 14.1941 4.48086 12.6025C4.48086 11.0108 4.98721 9.46044 5.92665 8.17564C6.86609 6.89084 8.18992 5.93821 9.70657 5.45558C9.75032 5.41807 9.83154 5.41807 9.87529 5.41807C10.0442 5.45558 10.1254 5.58057 10.1254 5.74933V6.33058C10.1254 6.54307 10.0442 6.66808 9.87529 6.74932C8.16911 7.37432 6.79411 8.70557 6.16911 10.4555C5.88332 11.2239 5.75259 12.0413 5.78444 12.8604C5.81629 13.6796 6.01011 14.4843 6.35471 15.228C6.69932 15.9719 7.18786 16.6401 7.79213 17.194ZM13.9191 5.62432C13.9566 5.45558 14.1253 5.37432 14.294 5.45558C15.4397 5.82794 16.4798 6.46856 17.3276 7.32414C18.1757 8.17969 18.807 9.22545 19.1691 10.3743C20.419 14.3306 18.2503 18.543 14.294 19.793C14.2503 19.8305 14.1691 19.8305 14.1253 19.8305C13.9566 19.793 13.8753 19.6681 13.8753 19.4993V18.9181C13.8753 18.7056 13.9566 18.5806 14.1253 18.4992C15.8315 17.8743 17.2066 16.543 17.8316 14.793C18.1173 14.0248 18.2481 13.2074 18.2162 12.3882C18.1844 11.5691 17.9906 10.7644 17.646 10.0205C17.3014 9.27671 16.8129 8.60852 16.2085 8.05457C15.6043 7.50061 14.8963 7.07186 14.1253 6.79307C14.0003 6.70557 13.8753 6.54307 13.8753 6.37433V5.79308C13.8753 5.70558 13.8753 5.66807 13.9191 5.62432Z" fill="white"/>
</svg>
